<svg width="120" height="45" viewBox="0 0 120 45" fill="none" xmlns="http://www.w3.org/2000/svg">
<path d="M17.9948 0C8.05617 0 0 8.05617 0 17.9948C0 27.9334 8.05617 35.9895 17.9948 35.9895C27.9334 35.9895 35.9895 27.9334 35.9895 17.9948C35.9917 8.05617 27.9334 0 17.9948 0ZM26.2486 25.9564C25.9263 26.4872 25.2344 26.6526 24.7057 26.3303C20.4789 23.7473 15.1604 23.165 8.89639 24.5961C8.29255 24.7337 7.69086 24.3555 7.55333 23.7538C7.4158 23.1499 7.79186 22.5483 8.39785 22.4107C15.2528 20.8442 21.1321 21.5189 25.8769 24.4156C26.4055 24.7358 26.571 25.4278 26.2486 25.9564ZM28.4512 21.0548C28.0451 21.7145 27.1813 21.9229 26.5215 21.5168C21.6866 18.5449 14.3116 17.6832 8.5891 19.4195C7.84773 19.643 7.06339 19.2261 6.83775 18.4847C6.61427 17.7433 7.0333 16.9612 7.77252 16.7355C14.3094 14.7521 22.4344 15.7127 27.9871 19.1272C28.6489 19.5334 28.8552 20.3972 28.4512 21.0548ZM28.6403 15.9533C22.8405 12.5087 13.2715 12.1928 7.73384 13.8732C6.8442 14.144 5.90514 13.6411 5.63438 12.7515C5.36577 11.8618 5.86646 10.9228 6.7561 10.652C13.1125 8.72233 23.6807 9.09623 30.3573 13.0588C31.1567 13.5337 31.4189 14.5673 30.9461 15.3645C30.4712 16.1639 29.4376 16.4282 28.6403 15.9533Z" fill="#2EBD59"/>
<path d="M48.9601 16.6135C45.8528 15.8721 45.3005 15.3521 45.3005 14.2604C45.3005 13.229 46.2718 12.5327 47.718 12.5327C49.1191 12.5327 50.5073 13.0614 51.9642 14.1465C52.0093 14.1788 52.0631 14.1917 52.1168 14.1831C52.1705 14.1745 52.2199 14.1444 52.25 14.0993L53.7671 11.9611C53.8295 11.873 53.8123 11.7527 53.7285 11.6839C51.9943 10.2936 50.0431 9.6167 47.761 9.6167C44.4066 9.6167 42.0622 11.6302 42.0622 14.5097C42.0622 17.5998 44.0843 18.6914 47.5762 19.536C50.5503 20.2214 51.0509 20.7952 51.0509 21.8202C51.0509 22.957 50.0367 23.664 48.4035 23.664C46.5899 23.664 45.1114 23.0537 43.4546 21.6204C43.4138 21.586 43.3579 21.5688 43.3064 21.5709C43.2526 21.5752 43.2011 21.601 43.1667 21.6419L41.4648 23.6661C41.3939 23.7499 41.4025 23.8767 41.4841 23.9476C43.4095 25.6667 45.7776 26.5736 48.3326 26.5736C51.947 26.5736 54.2829 24.5987 54.2829 21.5409C54.2893 18.9622 52.7443 17.5332 48.9601 16.6135Z" fill="#2EBD59"/>
<path d="M62.4678 13.549C60.9013 13.549 59.6162 14.1657 58.5547 15.4314V14.0088C58.5547 13.8971 58.4644 13.8047 58.3505 13.8047H55.5699C55.4581 13.8047 55.3657 13.8971 55.3657 14.0088V29.8246C55.3657 29.9364 55.456 30.0288 55.5699 30.0288H58.3527C58.4644 30.0288 58.5568 29.9364 58.5568 29.8246V24.8327C59.6162 26.0232 60.9034 26.6034 62.4699 26.6034C65.3817 26.6034 68.33 24.3621 68.33 20.0773C68.3257 15.7902 65.3795 13.549 62.4678 13.549ZM65.0916 20.0751C65.0916 22.2562 63.7485 23.7798 61.8231 23.7798C59.9214 23.7798 58.4859 22.1875 58.4859 20.0751C58.4859 17.9628 59.9214 16.3704 61.8231 16.3704C63.7163 16.3726 65.0916 17.9284 65.0916 20.0751Z" fill="#2EBD59"/>
<path d="M75.8814 13.549C72.1316 13.549 69.1941 16.4371 69.1941 20.1224C69.1941 23.769 72.1123 26.6249 75.8342 26.6249C79.5969 26.6249 82.543 23.7476 82.543 20.0751C82.5451 16.4156 79.6183 13.549 75.8814 13.549ZM75.8814 23.8034C73.8873 23.8034 72.383 22.2004 72.383 20.0773C72.383 17.9434 73.8335 16.3962 75.8342 16.3962C77.8412 16.3962 79.3562 17.9993 79.3562 20.1245C79.3562 22.2562 77.8949 23.8034 75.8814 23.8034Z" fill="#2EBD59"/>
<path d="M90.5518 13.8026H87.4896V10.6739C87.4896 10.5621 87.3994 10.4697 87.2855 10.4697H84.5027C84.391 10.4697 84.2986 10.5621 84.2986 10.6739V13.8048H82.9598C82.8481 13.8048 82.7578 13.8972 82.7578 14.0089V16.4007C82.7578 16.5124 82.8481 16.6048 82.9598 16.6048H84.2986V22.7914C84.2986 25.2906 85.5428 26.5584 87.9968 26.5584C88.9939 26.5584 89.8233 26.3521 90.6034 25.9095C90.6657 25.8751 90.7065 25.8063 90.7065 25.7333V23.4554C90.7065 23.3845 90.67 23.3179 90.6098 23.2814C90.5497 23.2427 90.4744 23.2406 90.4121 23.2728C89.8771 23.5414 89.357 23.666 88.779 23.666C87.8872 23.666 87.4875 23.2599 87.4875 22.3531V16.6026H90.5497C90.6614 16.6026 90.7516 16.5102 90.7516 16.3985V14.0068C90.7559 13.895 90.6635 13.8026 90.5518 13.8026Z" fill="#2EBD59"/>
<path d="M101.219 13.8155V13.4308C101.219 12.3005 101.653 11.7955 102.624 11.7955C103.205 11.7955 103.671 11.9116 104.193 12.0856C104.258 12.105 104.324 12.0964 104.376 12.0577C104.429 12.019 104.46 11.9567 104.46 11.8922V9.54779C104.46 9.45754 104.401 9.37803 104.316 9.35224C103.763 9.18893 103.058 9.01917 102.003 9.01917C99.4333 9.01917 98.0752 10.4654 98.0752 13.203V13.7918H96.7386C96.6268 13.7918 96.5344 13.8842 96.5344 13.996V16.3984C96.5344 16.5102 96.6268 16.6026 96.7386 16.6026H98.0752V26.1458C98.0752 26.2575 98.1654 26.3499 98.2772 26.3499H101.06C101.172 26.3499 101.264 26.2575 101.264 26.1458V16.6026H103.862L107.842 26.1436C107.391 27.1472 106.946 27.3449 106.34 27.3449C105.85 27.3449 105.334 27.1987 104.805 26.9108C104.756 26.8829 104.698 26.8786 104.644 26.8957C104.591 26.9151 104.545 26.9538 104.524 27.0053L103.581 29.0747C103.535 29.1714 103.574 29.2875 103.669 29.3369C104.653 29.8698 105.543 30.0976 106.641 30.0976C108.695 30.0976 109.83 29.1413 110.831 26.567L115.657 14.0948C115.681 14.0325 115.675 13.9616 115.636 13.9057C115.597 13.8499 115.535 13.8176 115.468 13.8176H112.572C112.486 13.8176 112.406 13.8735 112.378 13.9552L109.411 22.4304L106.161 13.9466C106.131 13.8671 106.056 13.8155 105.972 13.8155H101.219Z" fill="#2EBD59"/>
<path d="M95.0343 13.8022H92.2515C92.1398 13.8022 92.0474 13.8946 92.0474 14.0064V26.1433C92.0474 26.255 92.1398 26.3474 92.2515 26.3474H95.0343C95.1461 26.3474 95.2385 26.255 95.2385 26.1433V14.0064C95.2385 13.8946 95.1461 13.8022 95.0343 13.8022Z" fill="#2EBD59"/>
<path d="M93.6592 8.27563C92.5568 8.27563 91.6628 9.16742 91.6628 10.2698C91.6628 11.3722 92.5568 12.2661 93.6592 12.2661C94.7615 12.2661 95.6533 11.3722 95.6533 10.2698C95.6533 9.16957 94.7594 8.27563 93.6592 8.27563Z" fill="#2EBD59"/>
<path d="M118.032 17.7051C116.931 17.7051 116.074 16.8219 116.074 15.7474C116.074 14.673 116.942 13.7791 118.042 13.7791C119.143 13.7791 120 14.6622 120 15.7367C120 16.8111 119.132 17.7051 118.032 17.7051ZM118.04 13.9746C117.037 13.9746 116.278 14.7718 116.278 15.7474C116.278 16.723 117.032 17.5095 118.029 17.5095C119.033 17.5095 119.792 16.7123 119.792 15.7367C119.794 14.7611 119.039 13.9746 118.04 13.9746ZM118.474 15.9387L119.029 16.7144H118.562L118.064 16.0031H117.636V16.7144H117.245V14.6601H118.161C118.638 14.6601 118.951 14.9051 118.951 15.3155C118.951 15.6507 118.758 15.857 118.474 15.9387ZM118.146 15.0104H117.636V15.6615H118.146C118.399 15.6615 118.552 15.5368 118.552 15.337C118.552 15.1243 118.399 15.0104 118.146 15.0104Z" fill="#2EBD59"/>
</svg>
